<mxfile host="app.diagrams.net" modified="2024-08-29T16:20:26.155Z" agent="Mozilla/5.0 (Windows NT 10.0; Win64; x64) AppleWebKit/537.36 (KHTML, like Gecko) Chrome/128.0.0.0 Safari/537.36" version="23.0.1" etag="T0RGFWpK7OHWwNz_f6pK" type="github">
  <diagram name="Page-1" id="Aey-eJSJg34oSW4Eya3Z">
    <mxGraphModel>
      <root>
        <mxCell id="0" />
        <mxCell id="1" parent="0" />
      </root>
    </mxGraphModel>
  </diagram>
</mxfile>
